<mxfile host="Electron" modified="2024-04-21T14:09:28.497Z" agent="Mozilla/5.0 (Windows NT 10.0; Win64; x64) AppleWebKit/537.36 (KHTML, like Gecko) draw.io/24.2.5 Chrome/120.0.6099.109 Electron/28.1.0 Safari/537.36" etag="FT981l639w6QkZe8Y1Iz" version="24.2.5" type="device">
  <diagram name="Page-1" id="3AJWvYsYsyQbB6B0eEmw">
    <mxGraphModel dx="1418" dy="838" grid="1" gridSize="10" guides="1" tooltips="1" connect="1" arrows="1" fold="1" page="0" pageScale="1" pageWidth="1100" pageHeight="850" math="0" shadow="0">
      <root>
        <mxCell id="0" />
        <mxCell id="1" parent="0" />
        <mxCell id="0v670Mv2RScpTM2QSdDx-116" value="" style="shape=ext;double=1;rounded=1;whiteSpace=wrap;html=1;fillColor=#e1d5e7;strokeColor=#9673a6;" parent="1" vertex="1">
          <mxGeometry x="10" y="135" width="1050" height="30" as="geometry" />
        </mxCell>
        <mxCell id="0v670Mv2RScpTM2QSdDx-115" value="" style="shape=ext;double=1;rounded=1;whiteSpace=wrap;html=1;fillColor=#ffe6cc;strokeColor=#d79b00;" parent="1" vertex="1">
          <mxGeometry x="10" y="105" width="1050" height="30" as="geometry" />
        </mxCell>
        <mxCell id="0v670Mv2RScpTM2QSdDx-114" value="" style="shape=ext;double=1;rounded=1;whiteSpace=wrap;html=1;fillColor=#d5e8d4;strokeColor=#82b366;" parent="1" vertex="1">
          <mxGeometry x="10" y="75" width="1050" height="30" as="geometry" />
        </mxCell>
        <mxCell id="0v670Mv2RScpTM2QSdDx-113" value="" style="shape=ext;double=1;rounded=1;whiteSpace=wrap;html=1;fillColor=#dae8fc;strokeColor=#6c8ebf;" parent="1" vertex="1">
          <mxGeometry x="10" y="45" width="1050" height="30" as="geometry" />
        </mxCell>
        <mxCell id="0v670Mv2RScpTM2QSdDx-3" value="Team Lead" style="rounded=1;whiteSpace=wrap;html=1;absoluteArcSize=1;arcSize=14;strokeWidth=2;fillColor=#d5e8d4;strokeColor=#82b366;" parent="1" vertex="1">
          <mxGeometry x="560" y="315" width="360" height="30" as="geometry" />
        </mxCell>
        <mxCell id="0v670Mv2RScpTM2QSdDx-4" value="Developer" style="rounded=1;whiteSpace=wrap;html=1;absoluteArcSize=1;arcSize=14;strokeWidth=2;fillColor=#e1d5e7;strokeColor=#9673a6;" parent="1" vertex="1">
          <mxGeometry x="360" y="345" width="360" height="30" as="geometry" />
        </mxCell>
        <mxCell id="0v670Mv2RScpTM2QSdDx-5" value="Developer" style="rounded=1;whiteSpace=wrap;html=1;absoluteArcSize=1;arcSize=14;strokeWidth=2;fillColor=#e1d5e7;strokeColor=#9673a6;" parent="1" vertex="1">
          <mxGeometry x="360" y="375" width="360" height="30" as="geometry" />
        </mxCell>
        <mxCell id="0v670Mv2RScpTM2QSdDx-6" value="Developer" style="rounded=1;whiteSpace=wrap;html=1;absoluteArcSize=1;arcSize=14;strokeWidth=2;fillColor=#e1d5e7;strokeColor=#9673a6;" parent="1" vertex="1">
          <mxGeometry x="360" y="405" width="360" height="30" as="geometry" />
        </mxCell>
        <mxCell id="0v670Mv2RScpTM2QSdDx-7" value="Developer" style="rounded=1;whiteSpace=wrap;html=1;absoluteArcSize=1;arcSize=14;strokeWidth=2;fillColor=#e1d5e7;strokeColor=#9673a6;" parent="1" vertex="1">
          <mxGeometry x="360" y="435" width="360" height="30" as="geometry" />
        </mxCell>
        <mxCell id="0v670Mv2RScpTM2QSdDx-8" value="QE Engineer" style="rounded=1;whiteSpace=wrap;html=1;absoluteArcSize=1;arcSize=14;strokeWidth=2;fillColor=#dae8fc;strokeColor=#6c8ebf;" parent="1" vertex="1">
          <mxGeometry x="660" y="255" width="340" height="30" as="geometry" />
        </mxCell>
        <mxCell id="0v670Mv2RScpTM2QSdDx-9" value="Scrum Master" style="rounded=1;whiteSpace=wrap;html=1;absoluteArcSize=1;arcSize=14;strokeWidth=2;fillColor=#dae8fc;strokeColor=#6c8ebf;" parent="1" vertex="1">
          <mxGeometry x="640" y="285" width="360" height="30" as="geometry" />
        </mxCell>
        <mxCell id="0v670Mv2RScpTM2QSdDx-10" value="Client Manager" style="rounded=1;whiteSpace=wrap;html=1;absoluteArcSize=1;arcSize=14;strokeWidth=2;fillColor=#d5e8d4;strokeColor=#82b366;" parent="1" vertex="1">
          <mxGeometry x="640" y="195" width="340" height="30" as="geometry" />
        </mxCell>
        <mxCell id="0v670Mv2RScpTM2QSdDx-11" value="Client Director" style="rounded=1;whiteSpace=wrap;html=1;absoluteArcSize=1;arcSize=14;strokeWidth=2;fillColor=#dae8fc;strokeColor=#6c8ebf;" parent="1" vertex="1">
          <mxGeometry x="560" y="165" width="340" height="30" as="geometry" />
        </mxCell>
        <mxCell id="0v670Mv2RScpTM2QSdDx-13" value="7" style="text;strokeColor=none;fillColor=none;html=1;fontSize=14;fontStyle=1;verticalAlign=middle;align=center;" parent="1" vertex="1">
          <mxGeometry x="310" y="140" width="20" height="20" as="geometry" />
        </mxCell>
        <mxCell id="0v670Mv2RScpTM2QSdDx-14" value="8" style="text;strokeColor=none;fillColor=none;html=1;fontSize=14;fontStyle=1;verticalAlign=middle;align=center;" parent="1" vertex="1">
          <mxGeometry x="350" y="140" width="20" height="20" as="geometry" />
        </mxCell>
        <mxCell id="0v670Mv2RScpTM2QSdDx-15" value="9" style="text;strokeColor=none;fillColor=none;html=1;fontSize=14;fontStyle=1;verticalAlign=middle;align=center;" parent="1" vertex="1">
          <mxGeometry x="390" y="140" width="20" height="20" as="geometry" />
        </mxCell>
        <mxCell id="0v670Mv2RScpTM2QSdDx-16" value="10" style="text;strokeColor=none;fillColor=none;html=1;fontSize=14;fontStyle=1;verticalAlign=middle;align=center;" parent="1" vertex="1">
          <mxGeometry x="430" y="140" width="20" height="20" as="geometry" />
        </mxCell>
        <mxCell id="0v670Mv2RScpTM2QSdDx-17" value="11" style="text;strokeColor=none;fillColor=none;html=1;fontSize=14;fontStyle=1;verticalAlign=middle;align=center;" parent="1" vertex="1">
          <mxGeometry x="470" y="140" width="20" height="20" as="geometry" />
        </mxCell>
        <mxCell id="0v670Mv2RScpTM2QSdDx-18" value="12" style="text;strokeColor=none;fillColor=none;html=1;fontSize=14;fontStyle=1;verticalAlign=middle;align=center;" parent="1" vertex="1">
          <mxGeometry x="510" y="140" width="20" height="20" as="geometry" />
        </mxCell>
        <mxCell id="0v670Mv2RScpTM2QSdDx-19" value="13" style="text;strokeColor=none;fillColor=none;html=1;fontSize=14;fontStyle=1;verticalAlign=middle;align=center;" parent="1" vertex="1">
          <mxGeometry x="550" y="140" width="20" height="20" as="geometry" />
        </mxCell>
        <mxCell id="0v670Mv2RScpTM2QSdDx-20" value="14" style="text;strokeColor=none;fillColor=none;html=1;fontSize=14;fontStyle=1;verticalAlign=middle;align=center;" parent="1" vertex="1">
          <mxGeometry x="590" y="140" width="20" height="20" as="geometry" />
        </mxCell>
        <mxCell id="0v670Mv2RScpTM2QSdDx-21" value="15" style="text;strokeColor=none;fillColor=none;html=1;fontSize=14;fontStyle=1;verticalAlign=middle;align=center;" parent="1" vertex="1">
          <mxGeometry x="630" y="140" width="20" height="20" as="geometry" />
        </mxCell>
        <mxCell id="0v670Mv2RScpTM2QSdDx-22" value="16" style="text;strokeColor=none;fillColor=none;html=1;fontSize=14;fontStyle=1;verticalAlign=middle;align=center;" parent="1" vertex="1">
          <mxGeometry x="670" y="140" width="20" height="20" as="geometry" />
        </mxCell>
        <mxCell id="0v670Mv2RScpTM2QSdDx-23" value="17" style="text;strokeColor=none;fillColor=none;html=1;fontSize=14;fontStyle=1;verticalAlign=middle;align=center;" parent="1" vertex="1">
          <mxGeometry x="710" y="140" width="20" height="20" as="geometry" />
        </mxCell>
        <mxCell id="0v670Mv2RScpTM2QSdDx-24" value="18" style="text;strokeColor=none;fillColor=none;html=1;fontSize=14;fontStyle=1;verticalAlign=middle;align=center;" parent="1" vertex="1">
          <mxGeometry x="750" y="140" width="20" height="20" as="geometry" />
        </mxCell>
        <mxCell id="0v670Mv2RScpTM2QSdDx-25" value="19" style="text;strokeColor=none;fillColor=none;html=1;fontSize=14;fontStyle=1;verticalAlign=middle;align=center;" parent="1" vertex="1">
          <mxGeometry x="790" y="140" width="20" height="20" as="geometry" />
        </mxCell>
        <mxCell id="0v670Mv2RScpTM2QSdDx-26" value="20" style="text;strokeColor=none;fillColor=none;html=1;fontSize=14;fontStyle=1;verticalAlign=middle;align=center;" parent="1" vertex="1">
          <mxGeometry x="830" y="140" width="20" height="20" as="geometry" />
        </mxCell>
        <mxCell id="0v670Mv2RScpTM2QSdDx-27" value="21" style="text;strokeColor=none;fillColor=none;html=1;fontSize=14;fontStyle=1;verticalAlign=middle;align=center;" parent="1" vertex="1">
          <mxGeometry x="870" y="140" width="20" height="20" as="geometry" />
        </mxCell>
        <mxCell id="0v670Mv2RScpTM2QSdDx-28" value="22" style="text;strokeColor=none;fillColor=none;html=1;fontSize=14;fontStyle=1;verticalAlign=middle;align=center;" parent="1" vertex="1">
          <mxGeometry x="910" y="140" width="20" height="20" as="geometry" />
        </mxCell>
        <mxCell id="0v670Mv2RScpTM2QSdDx-29" value="23" style="text;strokeColor=none;fillColor=none;html=1;fontSize=14;fontStyle=1;verticalAlign=middle;align=center;" parent="1" vertex="1">
          <mxGeometry x="950" y="140" width="20" height="20" as="geometry" />
        </mxCell>
        <mxCell id="0v670Mv2RScpTM2QSdDx-30" value="6" style="text;strokeColor=none;fillColor=none;html=1;fontSize=14;fontStyle=1;verticalAlign=middle;align=center;" parent="1" vertex="1">
          <mxGeometry x="270" y="140" width="20" height="20" as="geometry" />
        </mxCell>
        <mxCell id="0v670Mv2RScpTM2QSdDx-31" value="5" style="text;strokeColor=none;fillColor=none;html=1;fontSize=14;fontStyle=1;verticalAlign=middle;align=center;" parent="1" vertex="1">
          <mxGeometry x="230" y="140" width="20" height="20" as="geometry" />
        </mxCell>
        <mxCell id="0v670Mv2RScpTM2QSdDx-32" value="4" style="text;strokeColor=none;fillColor=none;html=1;fontSize=14;fontStyle=1;verticalAlign=middle;align=center;" parent="1" vertex="1">
          <mxGeometry x="190" y="140" width="20" height="20" as="geometry" />
        </mxCell>
        <mxCell id="0v670Mv2RScpTM2QSdDx-33" value="3" style="text;strokeColor=none;fillColor=none;html=1;fontSize=14;fontStyle=1;verticalAlign=middle;align=center;" parent="1" vertex="1">
          <mxGeometry x="150" y="140" width="20" height="20" as="geometry" />
        </mxCell>
        <mxCell id="0v670Mv2RScpTM2QSdDx-34" value="2" style="text;strokeColor=none;fillColor=none;html=1;fontSize=14;fontStyle=1;verticalAlign=middle;align=center;" parent="1" vertex="1">
          <mxGeometry x="110" y="140" width="20" height="20" as="geometry" />
        </mxCell>
        <mxCell id="0v670Mv2RScpTM2QSdDx-35" value="1" style="text;strokeColor=none;fillColor=none;html=1;fontSize=14;fontStyle=1;verticalAlign=middle;align=center;" parent="1" vertex="1">
          <mxGeometry x="1030" y="140" width="20" height="20" as="geometry" />
        </mxCell>
        <mxCell id="0v670Mv2RScpTM2QSdDx-37" value="PL (+2)" style="text;strokeColor=none;fillColor=none;html=1;fontSize=14;fontStyle=1;verticalAlign=middle;align=center;" parent="1" vertex="1">
          <mxGeometry x="40" y="140" width="60" height="20" as="geometry" />
        </mxCell>
        <mxCell id="0v670Mv2RScpTM2QSdDx-40" value="7" style="text;strokeColor=none;fillColor=none;html=1;fontSize=14;fontStyle=1;verticalAlign=middle;align=center;" parent="1" vertex="1">
          <mxGeometry x="390" y="110" width="20" height="20" as="geometry" />
        </mxCell>
        <mxCell id="0v670Mv2RScpTM2QSdDx-41" value="8" style="text;strokeColor=none;fillColor=none;html=1;fontSize=14;fontStyle=1;verticalAlign=middle;align=center;" parent="1" vertex="1">
          <mxGeometry x="430" y="110" width="20" height="20" as="geometry" />
        </mxCell>
        <mxCell id="0v670Mv2RScpTM2QSdDx-42" value="9" style="text;strokeColor=none;fillColor=none;html=1;fontSize=14;fontStyle=1;verticalAlign=middle;align=center;" parent="1" vertex="1">
          <mxGeometry x="470" y="110" width="20" height="20" as="geometry" />
        </mxCell>
        <mxCell id="0v670Mv2RScpTM2QSdDx-43" value="10" style="text;strokeColor=none;fillColor=none;html=1;fontSize=14;fontStyle=1;verticalAlign=middle;align=center;" parent="1" vertex="1">
          <mxGeometry x="510" y="110" width="20" height="20" as="geometry" />
        </mxCell>
        <mxCell id="0v670Mv2RScpTM2QSdDx-44" value="11" style="text;strokeColor=none;fillColor=none;html=1;fontSize=14;fontStyle=1;verticalAlign=middle;align=center;" parent="1" vertex="1">
          <mxGeometry x="550" y="110" width="20" height="20" as="geometry" />
        </mxCell>
        <mxCell id="0v670Mv2RScpTM2QSdDx-45" value="12" style="text;strokeColor=none;fillColor=none;html=1;fontSize=14;fontStyle=1;verticalAlign=middle;align=center;" parent="1" vertex="1">
          <mxGeometry x="590" y="110" width="20" height="20" as="geometry" />
        </mxCell>
        <mxCell id="0v670Mv2RScpTM2QSdDx-46" value="13" style="text;strokeColor=none;fillColor=none;html=1;fontSize=14;fontStyle=1;verticalAlign=middle;align=center;" parent="1" vertex="1">
          <mxGeometry x="630" y="110" width="20" height="20" as="geometry" />
        </mxCell>
        <mxCell id="0v670Mv2RScpTM2QSdDx-47" value="14" style="text;strokeColor=none;fillColor=none;html=1;fontSize=14;fontStyle=1;verticalAlign=middle;align=center;" parent="1" vertex="1">
          <mxGeometry x="670" y="110" width="20" height="20" as="geometry" />
        </mxCell>
        <mxCell id="0v670Mv2RScpTM2QSdDx-48" value="15" style="text;strokeColor=none;fillColor=none;html=1;fontSize=14;fontStyle=1;verticalAlign=middle;align=center;" parent="1" vertex="1">
          <mxGeometry x="710" y="110" width="20" height="20" as="geometry" />
        </mxCell>
        <mxCell id="0v670Mv2RScpTM2QSdDx-49" value="16" style="text;strokeColor=none;fillColor=none;html=1;fontSize=14;fontStyle=1;verticalAlign=middle;align=center;" parent="1" vertex="1">
          <mxGeometry x="750" y="110" width="20" height="20" as="geometry" />
        </mxCell>
        <mxCell id="0v670Mv2RScpTM2QSdDx-50" value="17" style="text;strokeColor=none;fillColor=none;html=1;fontSize=14;fontStyle=1;verticalAlign=middle;align=center;" parent="1" vertex="1">
          <mxGeometry x="790" y="110" width="20" height="20" as="geometry" />
        </mxCell>
        <mxCell id="0v670Mv2RScpTM2QSdDx-51" value="18" style="text;strokeColor=none;fillColor=none;html=1;fontSize=14;fontStyle=1;verticalAlign=middle;align=center;" parent="1" vertex="1">
          <mxGeometry x="830" y="110" width="20" height="20" as="geometry" />
        </mxCell>
        <mxCell id="0v670Mv2RScpTM2QSdDx-52" value="19" style="text;strokeColor=none;fillColor=none;html=1;fontSize=14;fontStyle=1;verticalAlign=middle;align=center;" parent="1" vertex="1">
          <mxGeometry x="870" y="110" width="20" height="20" as="geometry" />
        </mxCell>
        <mxCell id="0v670Mv2RScpTM2QSdDx-53" value="20" style="text;strokeColor=none;fillColor=none;html=1;fontSize=14;fontStyle=1;verticalAlign=middle;align=center;" parent="1" vertex="1">
          <mxGeometry x="910" y="110" width="20" height="20" as="geometry" />
        </mxCell>
        <mxCell id="0v670Mv2RScpTM2QSdDx-54" value="21" style="text;strokeColor=none;fillColor=none;html=1;fontSize=14;fontStyle=1;verticalAlign=middle;align=center;" parent="1" vertex="1">
          <mxGeometry x="950" y="110" width="20" height="20" as="geometry" />
        </mxCell>
        <mxCell id="0v670Mv2RScpTM2QSdDx-55" value="22" style="text;strokeColor=none;fillColor=none;html=1;fontSize=14;fontStyle=1;verticalAlign=middle;align=center;" parent="1" vertex="1">
          <mxGeometry x="990" y="110" width="20" height="20" as="geometry" />
        </mxCell>
        <mxCell id="0v670Mv2RScpTM2QSdDx-56" value="23" style="text;strokeColor=none;fillColor=none;html=1;fontSize=14;fontStyle=1;verticalAlign=middle;align=center;" parent="1" vertex="1">
          <mxGeometry x="1030" y="110" width="20" height="20" as="geometry" />
        </mxCell>
        <mxCell id="0v670Mv2RScpTM2QSdDx-57" value="6" style="text;strokeColor=none;fillColor=none;html=1;fontSize=14;fontStyle=1;verticalAlign=middle;align=center;" parent="1" vertex="1">
          <mxGeometry x="350" y="110" width="20" height="20" as="geometry" />
        </mxCell>
        <mxCell id="0v670Mv2RScpTM2QSdDx-58" value="5" style="text;strokeColor=none;fillColor=none;html=1;fontSize=14;fontStyle=1;verticalAlign=middle;align=center;" parent="1" vertex="1">
          <mxGeometry x="310" y="110" width="20" height="20" as="geometry" />
        </mxCell>
        <mxCell id="0v670Mv2RScpTM2QSdDx-59" value="4" style="text;strokeColor=none;fillColor=none;html=1;fontSize=14;fontStyle=1;verticalAlign=middle;align=center;" parent="1" vertex="1">
          <mxGeometry x="270" y="110" width="20" height="20" as="geometry" />
        </mxCell>
        <mxCell id="0v670Mv2RScpTM2QSdDx-60" value="3" style="text;strokeColor=none;fillColor=none;html=1;fontSize=14;fontStyle=1;verticalAlign=middle;align=center;" parent="1" vertex="1">
          <mxGeometry x="230" y="110" width="20" height="20" as="geometry" />
        </mxCell>
        <mxCell id="0v670Mv2RScpTM2QSdDx-61" value="2" style="text;strokeColor=none;fillColor=none;html=1;fontSize=14;fontStyle=1;verticalAlign=middle;align=center;" parent="1" vertex="1">
          <mxGeometry x="190" y="110" width="20" height="20" as="geometry" />
        </mxCell>
        <mxCell id="0v670Mv2RScpTM2QSdDx-62" value="1" style="text;strokeColor=none;fillColor=none;html=1;fontSize=14;fontStyle=1;verticalAlign=middle;align=center;" parent="1" vertex="1">
          <mxGeometry x="150" y="110" width="20" height="20" as="geometry" />
        </mxCell>
        <mxCell id="0v670Mv2RScpTM2QSdDx-63" value="UTC" style="text;strokeColor=none;fillColor=none;html=1;fontSize=14;fontStyle=1;verticalAlign=middle;align=center;" parent="1" vertex="1">
          <mxGeometry x="40" y="110" width="60" height="20" as="geometry" />
        </mxCell>
        <mxCell id="0v670Mv2RScpTM2QSdDx-64" value="7" style="text;strokeColor=none;fillColor=none;html=1;fontSize=14;fontStyle=1;verticalAlign=middle;align=center;" parent="1" vertex="1">
          <mxGeometry x="550" y="80" width="20" height="20" as="geometry" />
        </mxCell>
        <mxCell id="0v670Mv2RScpTM2QSdDx-65" value="8" style="text;strokeColor=none;fillColor=none;html=1;fontSize=14;fontStyle=1;verticalAlign=middle;align=center;" parent="1" vertex="1">
          <mxGeometry x="590" y="80" width="20" height="20" as="geometry" />
        </mxCell>
        <mxCell id="0v670Mv2RScpTM2QSdDx-66" value="9" style="text;strokeColor=none;fillColor=none;html=1;fontSize=14;fontStyle=1;verticalAlign=middle;align=center;" parent="1" vertex="1">
          <mxGeometry x="630" y="80" width="20" height="20" as="geometry" />
        </mxCell>
        <mxCell id="0v670Mv2RScpTM2QSdDx-67" value="10" style="text;strokeColor=none;fillColor=none;html=1;fontSize=14;fontStyle=1;verticalAlign=middle;align=center;" parent="1" vertex="1">
          <mxGeometry x="670" y="80" width="20" height="20" as="geometry" />
        </mxCell>
        <mxCell id="0v670Mv2RScpTM2QSdDx-68" value="11" style="text;strokeColor=none;fillColor=none;html=1;fontSize=14;fontStyle=1;verticalAlign=middle;align=center;" parent="1" vertex="1">
          <mxGeometry x="710" y="80" width="20" height="20" as="geometry" />
        </mxCell>
        <mxCell id="0v670Mv2RScpTM2QSdDx-69" value="12" style="text;strokeColor=none;fillColor=none;html=1;fontSize=14;fontStyle=1;verticalAlign=middle;align=center;" parent="1" vertex="1">
          <mxGeometry x="750" y="80" width="20" height="20" as="geometry" />
        </mxCell>
        <mxCell id="0v670Mv2RScpTM2QSdDx-70" value="13" style="text;strokeColor=none;fillColor=none;html=1;fontSize=14;fontStyle=1;verticalAlign=middle;align=center;" parent="1" vertex="1">
          <mxGeometry x="790" y="80" width="20" height="20" as="geometry" />
        </mxCell>
        <mxCell id="0v670Mv2RScpTM2QSdDx-71" value="14" style="text;strokeColor=none;fillColor=none;html=1;fontSize=14;fontStyle=1;verticalAlign=middle;align=center;" parent="1" vertex="1">
          <mxGeometry x="830" y="80" width="20" height="20" as="geometry" />
        </mxCell>
        <mxCell id="0v670Mv2RScpTM2QSdDx-72" value="15" style="text;strokeColor=none;fillColor=none;html=1;fontSize=14;fontStyle=1;verticalAlign=middle;align=center;" parent="1" vertex="1">
          <mxGeometry x="870" y="80" width="20" height="20" as="geometry" />
        </mxCell>
        <mxCell id="0v670Mv2RScpTM2QSdDx-73" value="16" style="text;strokeColor=none;fillColor=none;html=1;fontSize=14;fontStyle=1;verticalAlign=middle;align=center;" parent="1" vertex="1">
          <mxGeometry x="910" y="80" width="20" height="20" as="geometry" />
        </mxCell>
        <mxCell id="0v670Mv2RScpTM2QSdDx-74" value="17" style="text;strokeColor=none;fillColor=none;html=1;fontSize=14;fontStyle=1;verticalAlign=middle;align=center;" parent="1" vertex="1">
          <mxGeometry x="950" y="80" width="20" height="20" as="geometry" />
        </mxCell>
        <mxCell id="0v670Mv2RScpTM2QSdDx-75" value="18" style="text;strokeColor=none;fillColor=none;html=1;fontSize=14;fontStyle=1;verticalAlign=middle;align=center;" parent="1" vertex="1">
          <mxGeometry x="990" y="80" width="20" height="20" as="geometry" />
        </mxCell>
        <mxCell id="0v670Mv2RScpTM2QSdDx-76" value="19" style="text;strokeColor=none;fillColor=none;html=1;fontSize=14;fontStyle=1;verticalAlign=middle;align=center;" parent="1" vertex="1">
          <mxGeometry x="1030" y="80" width="20" height="20" as="geometry" />
        </mxCell>
        <mxCell id="0v670Mv2RScpTM2QSdDx-77" value="20" style="text;strokeColor=none;fillColor=none;html=1;fontSize=14;fontStyle=1;verticalAlign=middle;align=center;" parent="1" vertex="1">
          <mxGeometry x="110" y="80" width="20" height="20" as="geometry" />
        </mxCell>
        <mxCell id="0v670Mv2RScpTM2QSdDx-78" value="21" style="text;strokeColor=none;fillColor=none;html=1;fontSize=14;fontStyle=1;verticalAlign=middle;align=center;" parent="1" vertex="1">
          <mxGeometry x="150" y="80" width="20" height="20" as="geometry" />
        </mxCell>
        <mxCell id="0v670Mv2RScpTM2QSdDx-79" value="22" style="text;strokeColor=none;fillColor=none;html=1;fontSize=14;fontStyle=1;verticalAlign=middle;align=center;" parent="1" vertex="1">
          <mxGeometry x="190" y="80" width="20" height="20" as="geometry" />
        </mxCell>
        <mxCell id="0v670Mv2RScpTM2QSdDx-80" value="23" style="text;strokeColor=none;fillColor=none;html=1;fontSize=14;fontStyle=1;verticalAlign=middle;align=center;" parent="1" vertex="1">
          <mxGeometry x="230" y="80" width="20" height="20" as="geometry" />
        </mxCell>
        <mxCell id="0v670Mv2RScpTM2QSdDx-81" value="6" style="text;strokeColor=none;fillColor=none;html=1;fontSize=14;fontStyle=1;verticalAlign=middle;align=center;" parent="1" vertex="1">
          <mxGeometry x="510" y="80" width="20" height="20" as="geometry" />
        </mxCell>
        <mxCell id="0v670Mv2RScpTM2QSdDx-82" value="5" style="text;strokeColor=none;fillColor=none;html=1;fontSize=14;fontStyle=1;verticalAlign=middle;align=center;" parent="1" vertex="1">
          <mxGeometry x="470" y="80" width="20" height="20" as="geometry" />
        </mxCell>
        <mxCell id="0v670Mv2RScpTM2QSdDx-83" value="4" style="text;strokeColor=none;fillColor=none;html=1;fontSize=14;fontStyle=1;verticalAlign=middle;align=center;" parent="1" vertex="1">
          <mxGeometry x="430" y="80" width="20" height="20" as="geometry" />
        </mxCell>
        <mxCell id="0v670Mv2RScpTM2QSdDx-84" value="3" style="text;strokeColor=none;fillColor=none;html=1;fontSize=14;fontStyle=1;verticalAlign=middle;align=center;" parent="1" vertex="1">
          <mxGeometry x="390" y="80" width="20" height="20" as="geometry" />
        </mxCell>
        <mxCell id="0v670Mv2RScpTM2QSdDx-85" value="2" style="text;strokeColor=none;fillColor=none;html=1;fontSize=14;fontStyle=1;verticalAlign=middle;align=center;" parent="1" vertex="1">
          <mxGeometry x="350" y="80" width="20" height="20" as="geometry" />
        </mxCell>
        <mxCell id="0v670Mv2RScpTM2QSdDx-86" value="1" style="text;strokeColor=none;fillColor=none;html=1;fontSize=14;fontStyle=1;verticalAlign=middle;align=center;" parent="1" vertex="1">
          <mxGeometry x="310" y="80" width="20" height="20" as="geometry" />
        </mxCell>
        <mxCell id="0v670Mv2RScpTM2QSdDx-87" value="EDT (-4)" style="text;strokeColor=none;fillColor=none;html=1;fontSize=14;fontStyle=1;verticalAlign=middle;align=center;" parent="1" vertex="1">
          <mxGeometry x="40" y="80" width="60" height="20" as="geometry" />
        </mxCell>
        <mxCell id="0v670Mv2RScpTM2QSdDx-88" value="7" style="text;strokeColor=none;fillColor=none;html=1;fontSize=14;fontStyle=1;verticalAlign=middle;align=center;" parent="1" vertex="1">
          <mxGeometry x="590" y="50" width="20" height="20" as="geometry" />
        </mxCell>
        <mxCell id="0v670Mv2RScpTM2QSdDx-89" value="8" style="text;strokeColor=none;fillColor=none;html=1;fontSize=14;fontStyle=1;verticalAlign=middle;align=center;" parent="1" vertex="1">
          <mxGeometry x="630" y="50" width="20" height="20" as="geometry" />
        </mxCell>
        <mxCell id="0v670Mv2RScpTM2QSdDx-90" value="9" style="text;strokeColor=none;fillColor=none;html=1;fontSize=14;fontStyle=1;verticalAlign=middle;align=center;" parent="1" vertex="1">
          <mxGeometry x="670" y="50" width="20" height="20" as="geometry" />
        </mxCell>
        <mxCell id="0v670Mv2RScpTM2QSdDx-91" value="10" style="text;strokeColor=none;fillColor=none;html=1;fontSize=14;fontStyle=1;verticalAlign=middle;align=center;" parent="1" vertex="1">
          <mxGeometry x="710" y="50" width="20" height="20" as="geometry" />
        </mxCell>
        <mxCell id="0v670Mv2RScpTM2QSdDx-92" value="11" style="text;strokeColor=none;fillColor=none;html=1;fontSize=14;fontStyle=1;verticalAlign=middle;align=center;" parent="1" vertex="1">
          <mxGeometry x="750" y="50" width="20" height="20" as="geometry" />
        </mxCell>
        <mxCell id="0v670Mv2RScpTM2QSdDx-93" value="12" style="text;strokeColor=none;fillColor=none;html=1;fontSize=14;fontStyle=1;verticalAlign=middle;align=center;" parent="1" vertex="1">
          <mxGeometry x="790" y="50" width="20" height="20" as="geometry" />
        </mxCell>
        <mxCell id="0v670Mv2RScpTM2QSdDx-94" value="13" style="text;strokeColor=none;fillColor=none;html=1;fontSize=14;fontStyle=1;verticalAlign=middle;align=center;" parent="1" vertex="1">
          <mxGeometry x="830" y="50" width="20" height="20" as="geometry" />
        </mxCell>
        <mxCell id="0v670Mv2RScpTM2QSdDx-95" value="14" style="text;strokeColor=none;fillColor=none;html=1;fontSize=14;fontStyle=1;verticalAlign=middle;align=center;" parent="1" vertex="1">
          <mxGeometry x="870" y="50" width="20" height="20" as="geometry" />
        </mxCell>
        <mxCell id="0v670Mv2RScpTM2QSdDx-96" value="15" style="text;strokeColor=none;fillColor=none;html=1;fontSize=14;fontStyle=1;verticalAlign=middle;align=center;" parent="1" vertex="1">
          <mxGeometry x="910" y="50" width="20" height="20" as="geometry" />
        </mxCell>
        <mxCell id="0v670Mv2RScpTM2QSdDx-97" value="16" style="text;strokeColor=none;fillColor=none;html=1;fontSize=14;fontStyle=1;verticalAlign=middle;align=center;" parent="1" vertex="1">
          <mxGeometry x="950" y="50" width="20" height="20" as="geometry" />
        </mxCell>
        <mxCell id="0v670Mv2RScpTM2QSdDx-98" value="17" style="text;strokeColor=none;fillColor=none;html=1;fontSize=14;fontStyle=1;verticalAlign=middle;align=center;" parent="1" vertex="1">
          <mxGeometry x="990" y="50" width="20" height="20" as="geometry" />
        </mxCell>
        <mxCell id="0v670Mv2RScpTM2QSdDx-99" value="18" style="text;strokeColor=none;fillColor=none;html=1;fontSize=14;fontStyle=1;verticalAlign=middle;align=center;" parent="1" vertex="1">
          <mxGeometry x="1030" y="50" width="20" height="20" as="geometry" />
        </mxCell>
        <mxCell id="0v670Mv2RScpTM2QSdDx-100" value="19" style="text;strokeColor=none;fillColor=none;html=1;fontSize=14;fontStyle=1;verticalAlign=middle;align=center;" parent="1" vertex="1">
          <mxGeometry x="110" y="50" width="20" height="20" as="geometry" />
        </mxCell>
        <mxCell id="0v670Mv2RScpTM2QSdDx-101" value="20" style="text;strokeColor=none;fillColor=none;html=1;fontSize=14;fontStyle=1;verticalAlign=middle;align=center;" parent="1" vertex="1">
          <mxGeometry x="150" y="50" width="20" height="20" as="geometry" />
        </mxCell>
        <mxCell id="0v670Mv2RScpTM2QSdDx-102" value="21" style="text;strokeColor=none;fillColor=none;html=1;fontSize=14;fontStyle=1;verticalAlign=middle;align=center;" parent="1" vertex="1">
          <mxGeometry x="190" y="50" width="20" height="20" as="geometry" />
        </mxCell>
        <mxCell id="0v670Mv2RScpTM2QSdDx-103" value="22" style="text;strokeColor=none;fillColor=none;html=1;fontSize=14;fontStyle=1;verticalAlign=middle;align=center;" parent="1" vertex="1">
          <mxGeometry x="230" y="50" width="20" height="20" as="geometry" />
        </mxCell>
        <mxCell id="0v670Mv2RScpTM2QSdDx-104" value="23" style="text;strokeColor=none;fillColor=none;html=1;fontSize=14;fontStyle=1;verticalAlign=middle;align=center;" parent="1" vertex="1">
          <mxGeometry x="270" y="50" width="20" height="20" as="geometry" />
        </mxCell>
        <mxCell id="0v670Mv2RScpTM2QSdDx-105" value="6" style="text;strokeColor=none;fillColor=none;html=1;fontSize=14;fontStyle=1;verticalAlign=middle;align=center;" parent="1" vertex="1">
          <mxGeometry x="550" y="50" width="20" height="20" as="geometry" />
        </mxCell>
        <mxCell id="0v670Mv2RScpTM2QSdDx-106" value="5" style="text;strokeColor=none;fillColor=none;html=1;fontSize=14;fontStyle=1;verticalAlign=middle;align=center;" parent="1" vertex="1">
          <mxGeometry x="510" y="50" width="20" height="20" as="geometry" />
        </mxCell>
        <mxCell id="0v670Mv2RScpTM2QSdDx-107" value="4" style="text;strokeColor=none;fillColor=none;html=1;fontSize=14;fontStyle=1;verticalAlign=middle;align=center;" parent="1" vertex="1">
          <mxGeometry x="470" y="50" width="20" height="20" as="geometry" />
        </mxCell>
        <mxCell id="0v670Mv2RScpTM2QSdDx-108" value="3" style="text;strokeColor=none;fillColor=none;html=1;fontSize=14;fontStyle=1;verticalAlign=middle;align=center;" parent="1" vertex="1">
          <mxGeometry x="430" y="50" width="20" height="20" as="geometry" />
        </mxCell>
        <mxCell id="0v670Mv2RScpTM2QSdDx-109" value="2" style="text;strokeColor=none;fillColor=none;html=1;fontSize=14;fontStyle=1;verticalAlign=middle;align=center;" parent="1" vertex="1">
          <mxGeometry x="390" y="50" width="20" height="20" as="geometry" />
        </mxCell>
        <mxCell id="0v670Mv2RScpTM2QSdDx-110" value="1" style="text;strokeColor=none;fillColor=none;html=1;fontSize=14;fontStyle=1;verticalAlign=middle;align=center;" parent="1" vertex="1">
          <mxGeometry x="350" y="50" width="20" height="20" as="geometry" />
        </mxCell>
        <mxCell id="0v670Mv2RScpTM2QSdDx-111" value="CDT (-5)" style="text;strokeColor=none;fillColor=none;html=1;fontSize=14;fontStyle=1;verticalAlign=middle;align=center;" parent="1" vertex="1">
          <mxGeometry x="40" y="50" width="60" height="20" as="geometry" />
        </mxCell>
        <mxCell id="0v670Mv2RScpTM2QSdDx-117" value="0" style="text;strokeColor=none;fillColor=none;html=1;fontSize=14;fontStyle=1;verticalAlign=middle;align=center;" parent="1" vertex="1">
          <mxGeometry x="110" y="110" width="20" height="20" as="geometry" />
        </mxCell>
        <mxCell id="0v670Mv2RScpTM2QSdDx-118" value="0" style="text;strokeColor=none;fillColor=none;html=1;fontSize=14;fontStyle=1;verticalAlign=middle;align=center;" parent="1" vertex="1">
          <mxGeometry x="990" y="140" width="20" height="20" as="geometry" />
        </mxCell>
        <mxCell id="0v670Mv2RScpTM2QSdDx-119" value="0" style="text;strokeColor=none;fillColor=none;html=1;fontSize=14;fontStyle=1;verticalAlign=middle;align=center;" parent="1" vertex="1">
          <mxGeometry x="270" y="80" width="20" height="20" as="geometry" />
        </mxCell>
        <mxCell id="0v670Mv2RScpTM2QSdDx-120" value="0" style="text;strokeColor=none;fillColor=none;html=1;fontSize=14;fontStyle=1;verticalAlign=middle;align=center;" parent="1" vertex="1">
          <mxGeometry x="310" y="50" width="20" height="20" as="geometry" />
        </mxCell>
        <mxCell id="0v670Mv2RScpTM2QSdDx-128" value="" style="shape=ext;double=1;rounded=1;whiteSpace=wrap;html=1;fillColor=#d5e8d4;strokeColor=#82b366;" parent="1" vertex="1">
          <mxGeometry x="10" y="660" width="1050" height="30" as="geometry" />
        </mxCell>
        <mxCell id="0v670Mv2RScpTM2QSdDx-129" value="" style="shape=ext;double=1;rounded=1;whiteSpace=wrap;html=1;fillColor=#dae8fc;strokeColor=#6c8ebf;" parent="1" vertex="1">
          <mxGeometry x="10" y="630" width="1050" height="30" as="geometry" />
        </mxCell>
        <mxCell id="0v670Mv2RScpTM2QSdDx-130" value="7" style="text;strokeColor=none;fillColor=none;html=1;fontSize=14;fontStyle=1;verticalAlign=middle;align=center;" parent="1" vertex="1">
          <mxGeometry x="590" y="665" width="20" height="20" as="geometry" />
        </mxCell>
        <mxCell id="0v670Mv2RScpTM2QSdDx-131" value="8" style="text;strokeColor=none;fillColor=none;html=1;fontSize=14;fontStyle=1;verticalAlign=middle;align=center;" parent="1" vertex="1">
          <mxGeometry x="630" y="665" width="20" height="20" as="geometry" />
        </mxCell>
        <mxCell id="0v670Mv2RScpTM2QSdDx-132" value="9" style="text;strokeColor=none;fillColor=none;html=1;fontSize=14;fontStyle=1;verticalAlign=middle;align=center;" parent="1" vertex="1">
          <mxGeometry x="670" y="665" width="20" height="20" as="geometry" />
        </mxCell>
        <mxCell id="0v670Mv2RScpTM2QSdDx-133" value="10" style="text;strokeColor=none;fillColor=none;html=1;fontSize=14;fontStyle=1;verticalAlign=middle;align=center;" parent="1" vertex="1">
          <mxGeometry x="710" y="665" width="20" height="20" as="geometry" />
        </mxCell>
        <mxCell id="0v670Mv2RScpTM2QSdDx-134" value="11" style="text;strokeColor=none;fillColor=none;html=1;fontSize=14;fontStyle=1;verticalAlign=middle;align=center;" parent="1" vertex="1">
          <mxGeometry x="750" y="665" width="20" height="20" as="geometry" />
        </mxCell>
        <mxCell id="0v670Mv2RScpTM2QSdDx-135" value="12" style="text;strokeColor=none;fillColor=none;html=1;fontSize=14;fontStyle=1;verticalAlign=middle;align=center;" parent="1" vertex="1">
          <mxGeometry x="790" y="665" width="20" height="20" as="geometry" />
        </mxCell>
        <mxCell id="0v670Mv2RScpTM2QSdDx-136" value="13" style="text;strokeColor=none;fillColor=none;html=1;fontSize=14;fontStyle=1;verticalAlign=middle;align=center;" parent="1" vertex="1">
          <mxGeometry x="830" y="665" width="20" height="20" as="geometry" />
        </mxCell>
        <mxCell id="0v670Mv2RScpTM2QSdDx-137" value="14" style="text;strokeColor=none;fillColor=none;html=1;fontSize=14;fontStyle=1;verticalAlign=middle;align=center;" parent="1" vertex="1">
          <mxGeometry x="870" y="665" width="20" height="20" as="geometry" />
        </mxCell>
        <mxCell id="0v670Mv2RScpTM2QSdDx-138" value="15" style="text;strokeColor=none;fillColor=none;html=1;fontSize=14;fontStyle=1;verticalAlign=middle;align=center;" parent="1" vertex="1">
          <mxGeometry x="910" y="665" width="20" height="20" as="geometry" />
        </mxCell>
        <mxCell id="0v670Mv2RScpTM2QSdDx-139" value="16" style="text;strokeColor=none;fillColor=none;html=1;fontSize=14;fontStyle=1;verticalAlign=middle;align=center;" parent="1" vertex="1">
          <mxGeometry x="950" y="665" width="20" height="20" as="geometry" />
        </mxCell>
        <mxCell id="0v670Mv2RScpTM2QSdDx-140" value="17" style="text;strokeColor=none;fillColor=none;html=1;fontSize=14;fontStyle=1;verticalAlign=middle;align=center;" parent="1" vertex="1">
          <mxGeometry x="990" y="665" width="20" height="20" as="geometry" />
        </mxCell>
        <mxCell id="0v670Mv2RScpTM2QSdDx-141" value="18" style="text;strokeColor=none;fillColor=none;html=1;fontSize=14;fontStyle=1;verticalAlign=middle;align=center;" parent="1" vertex="1">
          <mxGeometry x="1030" y="665" width="20" height="20" as="geometry" />
        </mxCell>
        <mxCell id="0v670Mv2RScpTM2QSdDx-142" value="19" style="text;strokeColor=none;fillColor=none;html=1;fontSize=14;fontStyle=1;verticalAlign=middle;align=center;" parent="1" vertex="1">
          <mxGeometry x="110" y="665" width="20" height="20" as="geometry" />
        </mxCell>
        <mxCell id="0v670Mv2RScpTM2QSdDx-143" value="20" style="text;strokeColor=none;fillColor=none;html=1;fontSize=14;fontStyle=1;verticalAlign=middle;align=center;" parent="1" vertex="1">
          <mxGeometry x="150" y="665" width="20" height="20" as="geometry" />
        </mxCell>
        <mxCell id="0v670Mv2RScpTM2QSdDx-144" value="21" style="text;strokeColor=none;fillColor=none;html=1;fontSize=14;fontStyle=1;verticalAlign=middle;align=center;" parent="1" vertex="1">
          <mxGeometry x="190" y="665" width="20" height="20" as="geometry" />
        </mxCell>
        <mxCell id="0v670Mv2RScpTM2QSdDx-145" value="22" style="text;strokeColor=none;fillColor=none;html=1;fontSize=14;fontStyle=1;verticalAlign=middle;align=center;" parent="1" vertex="1">
          <mxGeometry x="230" y="665" width="20" height="20" as="geometry" />
        </mxCell>
        <mxCell id="0v670Mv2RScpTM2QSdDx-146" value="23" style="text;strokeColor=none;fillColor=none;html=1;fontSize=14;fontStyle=1;verticalAlign=middle;align=center;" parent="1" vertex="1">
          <mxGeometry x="270" y="665" width="20" height="20" as="geometry" />
        </mxCell>
        <mxCell id="0v670Mv2RScpTM2QSdDx-147" value="6" style="text;strokeColor=none;fillColor=none;html=1;fontSize=14;fontStyle=1;verticalAlign=middle;align=center;" parent="1" vertex="1">
          <mxGeometry x="550" y="665" width="20" height="20" as="geometry" />
        </mxCell>
        <mxCell id="0v670Mv2RScpTM2QSdDx-148" value="5" style="text;strokeColor=none;fillColor=none;html=1;fontSize=14;fontStyle=1;verticalAlign=middle;align=center;" parent="1" vertex="1">
          <mxGeometry x="510" y="665" width="20" height="20" as="geometry" />
        </mxCell>
        <mxCell id="0v670Mv2RScpTM2QSdDx-149" value="4" style="text;strokeColor=none;fillColor=none;html=1;fontSize=14;fontStyle=1;verticalAlign=middle;align=center;" parent="1" vertex="1">
          <mxGeometry x="470" y="665" width="20" height="20" as="geometry" />
        </mxCell>
        <mxCell id="0v670Mv2RScpTM2QSdDx-150" value="3" style="text;strokeColor=none;fillColor=none;html=1;fontSize=14;fontStyle=1;verticalAlign=middle;align=center;" parent="1" vertex="1">
          <mxGeometry x="430" y="665" width="20" height="20" as="geometry" />
        </mxCell>
        <mxCell id="0v670Mv2RScpTM2QSdDx-151" value="2" style="text;strokeColor=none;fillColor=none;html=1;fontSize=14;fontStyle=1;verticalAlign=middle;align=center;" parent="1" vertex="1">
          <mxGeometry x="390" y="665" width="20" height="20" as="geometry" />
        </mxCell>
        <mxCell id="0v670Mv2RScpTM2QSdDx-152" value="1" style="text;strokeColor=none;fillColor=none;html=1;fontSize=14;fontStyle=1;verticalAlign=middle;align=center;" parent="1" vertex="1">
          <mxGeometry x="350" y="665" width="20" height="20" as="geometry" />
        </mxCell>
        <mxCell id="0v670Mv2RScpTM2QSdDx-153" value="EST (-5)" style="text;strokeColor=none;fillColor=none;html=1;fontSize=14;fontStyle=1;verticalAlign=middle;align=center;" parent="1" vertex="1">
          <mxGeometry x="40" y="665" width="60" height="20" as="geometry" />
        </mxCell>
        <mxCell id="0v670Mv2RScpTM2QSdDx-154" value="7" style="text;strokeColor=none;fillColor=none;html=1;fontSize=14;fontStyle=1;verticalAlign=middle;align=center;" parent="1" vertex="1">
          <mxGeometry x="630" y="635" width="20" height="20" as="geometry" />
        </mxCell>
        <mxCell id="0v670Mv2RScpTM2QSdDx-155" value="8" style="text;strokeColor=none;fillColor=none;html=1;fontSize=14;fontStyle=1;verticalAlign=middle;align=center;" parent="1" vertex="1">
          <mxGeometry x="670" y="635" width="20" height="20" as="geometry" />
        </mxCell>
        <mxCell id="0v670Mv2RScpTM2QSdDx-156" value="9" style="text;strokeColor=none;fillColor=none;html=1;fontSize=14;fontStyle=1;verticalAlign=middle;align=center;" parent="1" vertex="1">
          <mxGeometry x="710" y="635" width="20" height="20" as="geometry" />
        </mxCell>
        <mxCell id="0v670Mv2RScpTM2QSdDx-157" value="10" style="text;strokeColor=none;fillColor=none;html=1;fontSize=14;fontStyle=1;verticalAlign=middle;align=center;" parent="1" vertex="1">
          <mxGeometry x="750" y="635" width="20" height="20" as="geometry" />
        </mxCell>
        <mxCell id="0v670Mv2RScpTM2QSdDx-158" value="11" style="text;strokeColor=none;fillColor=none;html=1;fontSize=14;fontStyle=1;verticalAlign=middle;align=center;" parent="1" vertex="1">
          <mxGeometry x="790" y="635" width="20" height="20" as="geometry" />
        </mxCell>
        <mxCell id="0v670Mv2RScpTM2QSdDx-159" value="12" style="text;strokeColor=none;fillColor=none;html=1;fontSize=14;fontStyle=1;verticalAlign=middle;align=center;" parent="1" vertex="1">
          <mxGeometry x="830" y="635" width="20" height="20" as="geometry" />
        </mxCell>
        <mxCell id="0v670Mv2RScpTM2QSdDx-160" value="13" style="text;strokeColor=none;fillColor=none;html=1;fontSize=14;fontStyle=1;verticalAlign=middle;align=center;" parent="1" vertex="1">
          <mxGeometry x="870" y="635" width="20" height="20" as="geometry" />
        </mxCell>
        <mxCell id="0v670Mv2RScpTM2QSdDx-161" value="14" style="text;strokeColor=none;fillColor=none;html=1;fontSize=14;fontStyle=1;verticalAlign=middle;align=center;" parent="1" vertex="1">
          <mxGeometry x="910" y="635" width="20" height="20" as="geometry" />
        </mxCell>
        <mxCell id="0v670Mv2RScpTM2QSdDx-162" value="15" style="text;strokeColor=none;fillColor=none;html=1;fontSize=14;fontStyle=1;verticalAlign=middle;align=center;" parent="1" vertex="1">
          <mxGeometry x="950" y="635" width="20" height="20" as="geometry" />
        </mxCell>
        <mxCell id="0v670Mv2RScpTM2QSdDx-163" value="16" style="text;strokeColor=none;fillColor=none;html=1;fontSize=14;fontStyle=1;verticalAlign=middle;align=center;" parent="1" vertex="1">
          <mxGeometry x="990" y="635" width="20" height="20" as="geometry" />
        </mxCell>
        <mxCell id="0v670Mv2RScpTM2QSdDx-164" value="17" style="text;strokeColor=none;fillColor=none;html=1;fontSize=14;fontStyle=1;verticalAlign=middle;align=center;" parent="1" vertex="1">
          <mxGeometry x="1030" y="635" width="20" height="20" as="geometry" />
        </mxCell>
        <mxCell id="0v670Mv2RScpTM2QSdDx-165" value="18" style="text;strokeColor=none;fillColor=none;html=1;fontSize=14;fontStyle=1;verticalAlign=middle;align=center;" parent="1" vertex="1">
          <mxGeometry x="110" y="635" width="20" height="20" as="geometry" />
        </mxCell>
        <mxCell id="0v670Mv2RScpTM2QSdDx-166" value="19" style="text;strokeColor=none;fillColor=none;html=1;fontSize=14;fontStyle=1;verticalAlign=middle;align=center;" parent="1" vertex="1">
          <mxGeometry x="150" y="635" width="20" height="20" as="geometry" />
        </mxCell>
        <mxCell id="0v670Mv2RScpTM2QSdDx-167" value="20" style="text;strokeColor=none;fillColor=none;html=1;fontSize=14;fontStyle=1;verticalAlign=middle;align=center;" parent="1" vertex="1">
          <mxGeometry x="190" y="635" width="20" height="20" as="geometry" />
        </mxCell>
        <mxCell id="0v670Mv2RScpTM2QSdDx-168" value="21" style="text;strokeColor=none;fillColor=none;html=1;fontSize=14;fontStyle=1;verticalAlign=middle;align=center;" parent="1" vertex="1">
          <mxGeometry x="230" y="635" width="20" height="20" as="geometry" />
        </mxCell>
        <mxCell id="0v670Mv2RScpTM2QSdDx-169" value="22" style="text;strokeColor=none;fillColor=none;html=1;fontSize=14;fontStyle=1;verticalAlign=middle;align=center;" parent="1" vertex="1">
          <mxGeometry x="270" y="635" width="20" height="20" as="geometry" />
        </mxCell>
        <mxCell id="0v670Mv2RScpTM2QSdDx-170" value="23" style="text;strokeColor=none;fillColor=none;html=1;fontSize=14;fontStyle=1;verticalAlign=middle;align=center;" parent="1" vertex="1">
          <mxGeometry x="310" y="635" width="20" height="20" as="geometry" />
        </mxCell>
        <mxCell id="0v670Mv2RScpTM2QSdDx-171" value="6" style="text;strokeColor=none;fillColor=none;html=1;fontSize=14;fontStyle=1;verticalAlign=middle;align=center;" parent="1" vertex="1">
          <mxGeometry x="590" y="635" width="20" height="20" as="geometry" />
        </mxCell>
        <mxCell id="0v670Mv2RScpTM2QSdDx-172" value="5" style="text;strokeColor=none;fillColor=none;html=1;fontSize=14;fontStyle=1;verticalAlign=middle;align=center;" parent="1" vertex="1">
          <mxGeometry x="550" y="635" width="20" height="20" as="geometry" />
        </mxCell>
        <mxCell id="0v670Mv2RScpTM2QSdDx-173" value="4" style="text;strokeColor=none;fillColor=none;html=1;fontSize=14;fontStyle=1;verticalAlign=middle;align=center;" parent="1" vertex="1">
          <mxGeometry x="510" y="635" width="20" height="20" as="geometry" />
        </mxCell>
        <mxCell id="0v670Mv2RScpTM2QSdDx-174" value="3" style="text;strokeColor=none;fillColor=none;html=1;fontSize=14;fontStyle=1;verticalAlign=middle;align=center;" parent="1" vertex="1">
          <mxGeometry x="470" y="635" width="20" height="20" as="geometry" />
        </mxCell>
        <mxCell id="0v670Mv2RScpTM2QSdDx-175" value="2" style="text;strokeColor=none;fillColor=none;html=1;fontSize=14;fontStyle=1;verticalAlign=middle;align=center;" parent="1" vertex="1">
          <mxGeometry x="430" y="635" width="20" height="20" as="geometry" />
        </mxCell>
        <mxCell id="0v670Mv2RScpTM2QSdDx-176" value="1" style="text;strokeColor=none;fillColor=none;html=1;fontSize=14;fontStyle=1;verticalAlign=middle;align=center;" parent="1" vertex="1">
          <mxGeometry x="390" y="635" width="20" height="20" as="geometry" />
        </mxCell>
        <mxCell id="0v670Mv2RScpTM2QSdDx-177" value="CST (-6)" style="text;strokeColor=none;fillColor=none;html=1;fontSize=14;fontStyle=1;verticalAlign=middle;align=center;" parent="1" vertex="1">
          <mxGeometry x="40" y="635" width="60" height="20" as="geometry" />
        </mxCell>
        <mxCell id="0v670Mv2RScpTM2QSdDx-178" value="0" style="text;strokeColor=none;fillColor=none;html=1;fontSize=14;fontStyle=1;verticalAlign=middle;align=center;" parent="1" vertex="1">
          <mxGeometry x="310" y="665" width="20" height="20" as="geometry" />
        </mxCell>
        <mxCell id="0v670Mv2RScpTM2QSdDx-179" value="0" style="text;strokeColor=none;fillColor=none;html=1;fontSize=14;fontStyle=1;verticalAlign=middle;align=center;" parent="1" vertex="1">
          <mxGeometry x="350" y="635" width="20" height="20" as="geometry" />
        </mxCell>
        <mxCell id="0v670Mv2RScpTM2QSdDx-180" value="Daylight Savings Time Dates:&lt;br style=&quot;font-size: 14px;&quot;&gt;&lt;ul&gt;&lt;li&gt;US - Sun, Mar 12, 2023 - Sun, Nov 5, 2023&lt;/li&gt;&lt;li&gt;PL - Sun, Mar 26, 2023 2:00 AM - Sun, Oct 29, 2023 3:00 AM&lt;br&gt;&lt;/li&gt;&lt;/ul&gt;" style="text;strokeColor=none;fillColor=none;html=1;fontSize=14;fontStyle=3;verticalAlign=top;align=left;" parent="1" vertex="1">
          <mxGeometry x="10" y="530" width="440" height="80" as="geometry" />
        </mxCell>
        <mxCell id="0v670Mv2RScpTM2QSdDx-181" value="" style="shape=ext;double=1;rounded=1;whiteSpace=wrap;html=1;fillColor=#e1d5e7;strokeColor=#9673a6;" parent="1" vertex="1">
          <mxGeometry x="10" y="690" width="1050" height="30" as="geometry" />
        </mxCell>
        <mxCell id="0v670Mv2RScpTM2QSdDx-182" value="7" style="text;strokeColor=none;fillColor=none;html=1;fontSize=14;fontStyle=1;verticalAlign=middle;align=center;" parent="1" vertex="1">
          <mxGeometry x="350" y="695" width="20" height="20" as="geometry" />
        </mxCell>
        <mxCell id="0v670Mv2RScpTM2QSdDx-183" value="8" style="text;strokeColor=none;fillColor=none;html=1;fontSize=14;fontStyle=1;verticalAlign=middle;align=center;" parent="1" vertex="1">
          <mxGeometry x="390" y="695" width="20" height="20" as="geometry" />
        </mxCell>
        <mxCell id="0v670Mv2RScpTM2QSdDx-184" value="9" style="text;strokeColor=none;fillColor=none;html=1;fontSize=14;fontStyle=1;verticalAlign=middle;align=center;" parent="1" vertex="1">
          <mxGeometry x="430" y="695" width="20" height="20" as="geometry" />
        </mxCell>
        <mxCell id="0v670Mv2RScpTM2QSdDx-185" value="10" style="text;strokeColor=none;fillColor=none;html=1;fontSize=14;fontStyle=1;verticalAlign=middle;align=center;" parent="1" vertex="1">
          <mxGeometry x="470" y="695" width="20" height="20" as="geometry" />
        </mxCell>
        <mxCell id="0v670Mv2RScpTM2QSdDx-186" value="11" style="text;strokeColor=none;fillColor=none;html=1;fontSize=14;fontStyle=1;verticalAlign=middle;align=center;" parent="1" vertex="1">
          <mxGeometry x="510" y="695" width="20" height="20" as="geometry" />
        </mxCell>
        <mxCell id="0v670Mv2RScpTM2QSdDx-187" value="12" style="text;strokeColor=none;fillColor=none;html=1;fontSize=14;fontStyle=1;verticalAlign=middle;align=center;" parent="1" vertex="1">
          <mxGeometry x="550" y="695" width="20" height="20" as="geometry" />
        </mxCell>
        <mxCell id="0v670Mv2RScpTM2QSdDx-188" value="13" style="text;strokeColor=none;fillColor=none;html=1;fontSize=14;fontStyle=1;verticalAlign=middle;align=center;" parent="1" vertex="1">
          <mxGeometry x="590" y="695" width="20" height="20" as="geometry" />
        </mxCell>
        <mxCell id="0v670Mv2RScpTM2QSdDx-189" value="14" style="text;strokeColor=none;fillColor=none;html=1;fontSize=14;fontStyle=1;verticalAlign=middle;align=center;" parent="1" vertex="1">
          <mxGeometry x="630" y="695" width="20" height="20" as="geometry" />
        </mxCell>
        <mxCell id="0v670Mv2RScpTM2QSdDx-190" value="15" style="text;strokeColor=none;fillColor=none;html=1;fontSize=14;fontStyle=1;verticalAlign=middle;align=center;" parent="1" vertex="1">
          <mxGeometry x="670" y="695" width="20" height="20" as="geometry" />
        </mxCell>
        <mxCell id="0v670Mv2RScpTM2QSdDx-191" value="16" style="text;strokeColor=none;fillColor=none;html=1;fontSize=14;fontStyle=1;verticalAlign=middle;align=center;" parent="1" vertex="1">
          <mxGeometry x="710" y="695" width="20" height="20" as="geometry" />
        </mxCell>
        <mxCell id="0v670Mv2RScpTM2QSdDx-192" value="17" style="text;strokeColor=none;fillColor=none;html=1;fontSize=14;fontStyle=1;verticalAlign=middle;align=center;" parent="1" vertex="1">
          <mxGeometry x="750" y="695" width="20" height="20" as="geometry" />
        </mxCell>
        <mxCell id="0v670Mv2RScpTM2QSdDx-193" value="18" style="text;strokeColor=none;fillColor=none;html=1;fontSize=14;fontStyle=1;verticalAlign=middle;align=center;" parent="1" vertex="1">
          <mxGeometry x="790" y="695" width="20" height="20" as="geometry" />
        </mxCell>
        <mxCell id="0v670Mv2RScpTM2QSdDx-194" value="19" style="text;strokeColor=none;fillColor=none;html=1;fontSize=14;fontStyle=1;verticalAlign=middle;align=center;" parent="1" vertex="1">
          <mxGeometry x="830" y="695" width="20" height="20" as="geometry" />
        </mxCell>
        <mxCell id="0v670Mv2RScpTM2QSdDx-195" value="20" style="text;strokeColor=none;fillColor=none;html=1;fontSize=14;fontStyle=1;verticalAlign=middle;align=center;" parent="1" vertex="1">
          <mxGeometry x="870" y="695" width="20" height="20" as="geometry" />
        </mxCell>
        <mxCell id="0v670Mv2RScpTM2QSdDx-196" value="21" style="text;strokeColor=none;fillColor=none;html=1;fontSize=14;fontStyle=1;verticalAlign=middle;align=center;" parent="1" vertex="1">
          <mxGeometry x="910" y="695" width="20" height="20" as="geometry" />
        </mxCell>
        <mxCell id="0v670Mv2RScpTM2QSdDx-197" value="22" style="text;strokeColor=none;fillColor=none;html=1;fontSize=14;fontStyle=1;verticalAlign=middle;align=center;" parent="1" vertex="1">
          <mxGeometry x="950" y="695" width="20" height="20" as="geometry" />
        </mxCell>
        <mxCell id="0v670Mv2RScpTM2QSdDx-198" value="23" style="text;strokeColor=none;fillColor=none;html=1;fontSize=14;fontStyle=1;verticalAlign=middle;align=center;" parent="1" vertex="1">
          <mxGeometry x="990" y="695" width="20" height="20" as="geometry" />
        </mxCell>
        <mxCell id="0v670Mv2RScpTM2QSdDx-199" value="6" style="text;strokeColor=none;fillColor=none;html=1;fontSize=14;fontStyle=1;verticalAlign=middle;align=center;" parent="1" vertex="1">
          <mxGeometry x="310" y="695" width="20" height="20" as="geometry" />
        </mxCell>
        <mxCell id="0v670Mv2RScpTM2QSdDx-200" value="5" style="text;strokeColor=none;fillColor=none;html=1;fontSize=14;fontStyle=1;verticalAlign=middle;align=center;" parent="1" vertex="1">
          <mxGeometry x="270" y="695" width="20" height="20" as="geometry" />
        </mxCell>
        <mxCell id="0v670Mv2RScpTM2QSdDx-201" value="4" style="text;strokeColor=none;fillColor=none;html=1;fontSize=14;fontStyle=1;verticalAlign=middle;align=center;" parent="1" vertex="1">
          <mxGeometry x="230" y="695" width="20" height="20" as="geometry" />
        </mxCell>
        <mxCell id="0v670Mv2RScpTM2QSdDx-202" value="3" style="text;strokeColor=none;fillColor=none;html=1;fontSize=14;fontStyle=1;verticalAlign=middle;align=center;" parent="1" vertex="1">
          <mxGeometry x="190" y="695" width="20" height="20" as="geometry" />
        </mxCell>
        <mxCell id="0v670Mv2RScpTM2QSdDx-203" value="2" style="text;strokeColor=none;fillColor=none;html=1;fontSize=14;fontStyle=1;verticalAlign=middle;align=center;" parent="1" vertex="1">
          <mxGeometry x="150" y="695" width="20" height="20" as="geometry" />
        </mxCell>
        <mxCell id="0v670Mv2RScpTM2QSdDx-204" value="1" style="text;strokeColor=none;fillColor=none;html=1;fontSize=14;fontStyle=1;verticalAlign=middle;align=center;" parent="1" vertex="1">
          <mxGeometry x="110" y="695" width="20" height="20" as="geometry" />
        </mxCell>
        <mxCell id="0v670Mv2RScpTM2QSdDx-205" value="PL (+1)" style="text;strokeColor=none;fillColor=none;html=1;fontSize=14;fontStyle=1;verticalAlign=middle;align=center;" parent="1" vertex="1">
          <mxGeometry x="40" y="695" width="60" height="20" as="geometry" />
        </mxCell>
        <mxCell id="0v670Mv2RScpTM2QSdDx-206" value="0" style="text;strokeColor=none;fillColor=none;html=1;fontSize=14;fontStyle=1;verticalAlign=middle;align=center;" parent="1" vertex="1">
          <mxGeometry x="1030" y="695" width="20" height="20" as="geometry" />
        </mxCell>
        <mxCell id="0v670Mv2RScpTM2QSdDx-208" value="St Louis" style="text;strokeColor=none;fillColor=none;html=1;fontSize=14;fontStyle=1;verticalAlign=middle;align=left;" parent="1" vertex="1">
          <mxGeometry x="1070" y="50" width="90" height="20" as="geometry" />
        </mxCell>
        <mxCell id="0v670Mv2RScpTM2QSdDx-209" value="New York" style="text;strokeColor=none;fillColor=none;html=1;fontSize=14;fontStyle=1;verticalAlign=middle;align=left;" parent="1" vertex="1">
          <mxGeometry x="1070" y="80" width="90" height="20" as="geometry" />
        </mxCell>
        <mxCell id="0v670Mv2RScpTM2QSdDx-210" value="Warsaw" style="text;strokeColor=none;fillColor=none;html=1;fontSize=14;fontStyle=1;verticalAlign=middle;align=left;" parent="1" vertex="1">
          <mxGeometry x="1070" y="140" width="90" height="20" as="geometry" />
        </mxCell>
        <mxCell id="srWS43fdVnNvILnb92A8-1" value="Developer" style="rounded=1;whiteSpace=wrap;html=1;absoluteArcSize=1;arcSize=14;strokeWidth=2;fillColor=#e1d5e7;strokeColor=#9673a6;" parent="1" vertex="1">
          <mxGeometry x="360" y="465" width="360" height="30" as="geometry" />
        </mxCell>
        <mxCell id="srWS43fdVnNvILnb92A8-2" value="Developer" style="rounded=1;whiteSpace=wrap;html=1;absoluteArcSize=1;arcSize=14;strokeWidth=2;fillColor=#e1d5e7;strokeColor=#9673a6;" parent="1" vertex="1">
          <mxGeometry x="360" y="495" width="360" height="30" as="geometry" />
        </mxCell>
        <mxCell id="0v670Mv2RScpTM2QSdDx-12" value="" style="line;strokeWidth=5;direction=south;html=1;opacity=25;fillColor=#f8cecc;strokeColor=#b85450;" parent="1" vertex="1">
          <mxGeometry x="550" y="20" width="20" height="530" as="geometry" />
        </mxCell>
        <mxCell id="MNauveIWQXE0HdDUk6xd-1" value="Developer" style="rounded=1;whiteSpace=wrap;html=1;absoluteArcSize=1;arcSize=14;strokeWidth=2;fillColor=#d5e8d4;strokeColor=#82b366;" parent="1" vertex="1">
          <mxGeometry x="640" y="225" width="340" height="30" as="geometry" />
        </mxCell>
        <mxCell id="0v670Mv2RScpTM2QSdDx-126" value="" style="line;strokeWidth=5;direction=south;html=1;opacity=25;fillColor=#f8cecc;strokeColor=#b85450;" parent="1" vertex="1">
          <mxGeometry x="710" y="20" width="20" height="530" as="geometry" />
        </mxCell>
        <mxCell id="0v670Mv2RScpTM2QSdDx-127" value="" style="line;strokeWidth=5;direction=south;html=1;opacity=25;fillColor=#f8cecc;strokeColor=#b85450;" parent="1" vertex="1">
          <mxGeometry x="630" y="20" width="20" height="530" as="geometry" />
        </mxCell>
      </root>
    </mxGraphModel>
  </diagram>
</mxfile>
